HIERARCHY
ROOT hip
{
	OFFSET 0.000000 0.000000 0.000000
	CHANNELS 6 Xposition Yposition Zposition Xrotation Zrotation Yrotation 
	JOINT abdomen
	{
		OFFSET 0.000000 3.422050 0.000000
		CHANNELS 3 Xrotation Zrotation Yrotation 
		JOINT chest
		{
			OFFSET 0.000000 8.486693 -0.684411
			CHANNELS 3 Xrotation Zrotation Yrotation 
			JOINT neck
			{
				OFFSET 0.000000 10.266162 -0.273764
				CHANNELS 3 Xrotation Zrotation Yrotation 
				JOINT head
				{
					OFFSET 0.000000 3.148285 0.000000
					CHANNELS 3 Xrotation Zrotation Yrotation 
					End Site
					{
						OFFSET 0.000000 3.148289 0.000000
					}
				}
			}
			JOINT lCollar
			{
				OFFSET 3.422053 6.707223 -0.821293
				CHANNELS 3 Yrotation Zrotation Xrotation 
				JOINT lShldr
				{
					OFFSET 3.285171 0.000000 0.000000
					CHANNELS 3 Zrotation Yrotation Xrotation 
					JOINT lForeArm
					{
						OFFSET 10.129278 0.000000 0.000000
						CHANNELS 3 Yrotation Zrotation Xrotation 
						JOINT lHand
						{
							OFFSET 8.486692 0.000000 0.000000
							CHANNELS 3 Zrotation Yrotation Xrotation 
							End Site
							{
								OFFSET 4.106464 0.000000 0.000000
							}
						}
					}
				}
			}
			JOINT rCollar
			{
				OFFSET -3.558935 6.707223 -0.821293
				CHANNELS 3 Yrotation Zrotation Xrotation 
				JOINT rShldr
				{
					OFFSET -3.148289 0.000000 0.000000
					CHANNELS 3 Zrotation Yrotation Xrotation 
					JOINT rForeArm
					{
						OFFSET -10.266159 0.000000 0.000000
						CHANNELS 3 Yrotation Zrotation Xrotation 
						JOINT rHand
						{
							OFFSET -8.349810 0.000000 0.000000
							CHANNELS 3 Zrotation Yrotation Xrotation 
							End Site
							{
								OFFSET -4.106464 0.000000 0.000000
							}
						}
					}
				}
			}
		}
	}
	JOINT lThigh
	{
		OFFSET 5.338403 -1.642589 1.368821
		CHANNELS 3 Xrotation Zrotation Yrotation 
		JOINT lShin
		{
			OFFSET -2.053232 -20.121670 0.000000
			CHANNELS 3 Xrotation Zrotation Yrotation 
			JOINT lFoot
			{
				OFFSET 0.000000 -19.300380 -1.231939
				CHANNELS 3 Xrotation Yrotation Zrotation 
				End Site
				{
					OFFSET 0.000000 -2.463878 4.653993
				}
			}
		}
	}
	JOINT rThigh
	{
		OFFSET -5.338403 -1.642589 1.368821
		CHANNELS 3 Xrotation Zrotation Yrotation 
		JOINT rShin
		{
			OFFSET 2.053232 -20.121670 0.000000
			CHANNELS 3 Xrotation Zrotation Yrotation 
			JOINT rFoot
			{
				OFFSET 0.000000 -19.300380 -1.231939
				CHANNELS 3 Xrotation Yrotation Zrotation 
				End Site
				{
					OFFSET 0.000000 -2.463878 4.653993
				}
			}
		}
	}
}
MOTION
Frames: 9
Frame Time: 0.033264
0.000000 43.528500 0.000000 0.000000 0.000000 0.000000 0.000000 0.000000 0.000000 0.000000 0.000000 0.000000 0.000000 0.000000 0.000000 0.000000 0.000000 0.000000 0.000000 0.000000 0.000000 0.000000 0.000000 0.000000 0.000000 0.000000 0.000000 0.000000 0.000000 0.000000 0.000000 0.000000 0.000000 0.000000 0.000000 0.000000 0.000000 0.000000 0.000000 0.000000 0.000000 0.000000 0.000000 0.000000 0.000000 0.000000 0.000000 0.000000 0.000000 0.000000 0.000000 0.000000 0.000000 0.000000 0.000000 0.000000 0.000000 0.000000 0.000000 0.000000 
19.995886 16.990459 -2.243796 -58.998295 -0.004567 -179.997421 2.663487 -0.155944 -0.138297 37.800434 -0.588221 -0.835339 -33.000099 0.000000 0.000000 -15.001697 0.000000 0.000000 -76.092148 15.420431 0.111329 -1.443076 9.264257 -4.267044 -10.415540 0.856703 -11.740420 64.623390 -3.237348 -13.670962 45.004898 -7.969213 -6.158800 -4.526388 38.220306 -5.175086 2.341772 -5.083420 -11.781431 -65.686821 0.055884 -5.322186 -170.109299 35.467201 -5.914776 108.849091 15.289721 2.699324 -4.273222 0.472586 7.864567 -170.126053 -35.467079 5.890504 108.829262 -15.328000 -2.713173 -4.248054 -0.511947 -7.890418 
19.995886 16.899681 -2.145674 -58.270706 -0.004584 -179.997452 3.329124 -0.155988 -0.138292 37.134697 -0.588250 -0.835393 -33.050766 0.000000 0.000000 -15.061260 0.000000 0.000000 -74.833176 14.914454 -0.211086 -1.229171 7.563335 -4.190463 -9.890923 0.813850 -11.761633 63.693291 -3.376105 -13.498703 46.750153 -8.062149 -5.863643 -4.174731 35.995373 -4.976575 2.948194 -4.843455 -11.763944 -65.130447 0.137488 -5.163124 -170.106628 36.312668 -5.558110 108.849091 15.289723 2.699323 -4.068073 -0.235307 8.932458 -170.022156 -36.047188 5.643315 108.829262 -15.328000 -2.713172 -4.020022 -0.007637 -8.692937 
19.995886 16.808901 -2.047553 -57.549335 -0.004601 -179.997482 3.995121 -0.156032 -0.138287 36.468590 -0.588278 -0.835446 -33.101425 0.000000 0.000000 -15.120827 0.000000 0.000000 -73.577408 14.400672 -0.521845 -1.017532 5.855927 -4.120288 -9.366148 0.770790 -11.782458 62.761620 -3.512200 -13.323993 48.502766 -8.146436 -5.564582 -3.839684 33.755409 -4.798739 3.554648 -4.603196 -11.749009 -64.573608 0.217576 -5.003210 -170.097305 37.158962 -5.197068 108.849098 15.289723 2.699325 -3.849271 -0.940707 10.005236 -169.914307 -36.627205 5.392852 108.829262 -15.328000 -2.713173 -3.784660 0.494009 -9.498424 
19.995886 16.718121 -1.949431 -56.827579 -0.004618 -179.997513 4.661435 -0.156076 -0.138283 35.802181 -0.588308 -0.835500 -33.152096 0.000000 0.000000 -15.180398 0.000000 0.000000 -72.325058 13.879460 -0.820773 -0.807874 4.142795 -4.056425 -8.841239 0.727529 -11.802896 61.828514 -3.645566 -13.146894 50.261879 -8.221855 -5.262005 -3.519342 31.502123 -4.639833 4.161113 -4.362683 -11.736623 -64.016342 0.296135 -4.842466 -170.081085 38.005955 -4.831392 108.849098 15.289723 2.699323 -3.616802 -1.643152 11.082960 -169.802414 -37.207069 5.139005 108.829262 -15.328000 -2.713172 -3.541992 0.992800 -10.306887 
19.995886 16.627342 -1.851309 -56.105476 -0.004635 -179.997528 5.328019 -0.156120 -0.138280 35.135498 -0.588338 -0.835553 -33.202759 0.000000 0.000000 -15.239971 0.000000 0.000000 -71.076294 13.351201 -1.107710 -0.599918 2.424717 -3.998795 -8.316219 0.684071 -11.822942 60.894081 -3.776143 -12.967464 52.026657 -8.288218 -4.956318 -3.212023 29.237297 -4.498349 4.767573 -4.121958 -11.726789 -63.458679 0.373150 -4.680913 -170.057709 38.853504 -4.460805 108.849075 15.289721 2.699322 -3.370659 -2.342182 12.165680 -169.686340 -37.786709 4.881655 108.829262 -15.328000 -2.713173 -3.292039 1.488546 -11.118317 
19.995886 16.536562 -1.753188 -55.383072 -0.004651 -179.997559 5.994827 -0.156164 -0.138277 34.468582 -0.588368 -0.835605 -33.253433 0.000000 0.000000 -15.299545 0.000000 0.000000 -69.831261 12.816280 -1.382517 -0.393387 0.702483 -3.947337 -7.791106 0.640422 -11.842590 59.958454 -3.903868 -12.785772 53.796185 -8.345354 -4.647935 -2.916239 26.962751 -4.372981 5.374011 -3.881066 -11.719512 -62.900661 0.448607 -4.518575 -170.026901 39.701466 -4.085016 108.849091 15.289721 2.699324 -3.110843 -3.037332 13.253428 -169.566010 -38.366123 4.620689 108.829262 -15.328000 -2.713173 -3.034831 1.981056 -11.932712 
19.995886 16.445784 -1.655066 -54.660461 -0.004667 -179.997589 6.661818 -0.156209 -0.138274 33.801483 -0.588399 -0.835657 -33.304096 0.000000 0.000000 -15.359130 0.000000 0.000000 -68.590149 12.275097 -1.645065 -0.188009 -1.023104 -3.902006 -7.265924 0.596587 -11.861841 59.021770 -4.028682 -12.601883 55.569576 -8.393119 -4.337291 -2.630658 24.680330 -4.262589 5.980406 -3.640049 -11.714790 -62.342293 0.522496 -4.355474 -169.988388 40.549698 -3.703712 108.849091 15.289721 2.699324 -2.837374 -3.728140 14.346252 -169.441254 -38.945225 4.355976 108.829262 -15.328000 -2.713173 -2.770400 2.470143 -12.750063 
19.995886 16.355003 -1.556945 -53.937672 -0.004682 -179.997620 7.328945 -0.156253 -0.138272 33.134258 -0.588431 -0.835709 -33.354767 0.000000 0.000000 -15.418710 0.000000 0.000000 -67.353096 11.728057 -1.895247 0.016489 -2.751234 -3.862771 -6.740695 0.552572 -11.880696 58.084167 -4.150531 -12.415869 57.345901 -8.431396 -4.024824 -2.354089 22.391907 -4.166181 6.586744 -3.398948 -11.712627 -61.783623 0.594802 -4.191632 -169.941818 41.398037 -3.316564 108.849091 15.289721 2.699324 -2.550276 -4.414138 15.444158 -169.311996 -39.523945 4.087387 108.829262 -15.328000 -2.713172 -2.498783 2.955616 -13.570355 
